<?xml version="1.0" encoding="utf-8"?>
<!-- Generator: Adobe Illustrator 16.0.0, SVG Export Plug-In . SVG Version: 6.00 Build 0)  -->
<!DOCTYPE svg PUBLIC "-//W3C//DTD SVG 1.1//EN" "http://www.w3.org/Graphics/SVG/1.1/DTD/svg11.dtd">
<svg version="1.1" id="Layer_1" xmlns="http://www.w3.org/2000/svg" xmlns:xlink="http://www.w3.org/1999/xlink" x="0px" y="0px"
	 width="1500px" height="400px" viewBox="0 0 1500 400" enable-background="new 0 0 1500 400" xml:space="preserve">
<g>
	<path fill="#FFFFFF" d="M1448.785,32.519h5.007l-5.793-9.232l0.435-0.096c2.759-0.589,4.1-2.536,4.1-5.948
		c0-5.418-4.943-6.226-7.885-6.226h-7.363v21.502h4.138v-8.123h2.751L1448.785,32.519z M1441.423,14.255h3.104
		c2.529,0,3.767,1.114,3.767,3.402c0,2.423-1.294,3.551-4.09,3.551h-2.781V14.255z"/>
	<path fill="#FFFFFF" d="M1444.768,1.411c-11.248,0-20.4,9.146-20.4,20.387c0,11.25,9.152,20.407,20.4,20.407
		c11.251,0,20.403-9.158,20.403-20.407C1465.171,10.556,1456.019,1.411,1444.768,1.411z M1444.768,39.086
		c-9.525,0-17.28-7.753-17.28-17.289c0-9.523,7.755-17.264,17.28-17.264c9.53,0,17.282,7.741,17.282,17.264
		C1462.05,31.333,1454.298,39.086,1444.768,39.086z"/>
</g>
<g>
	<path fill="#FFFFFF" d="M492.895,346.097c-0.114-0.351-0.28-0.618-0.513-0.857c-0.211-0.232-0.535-0.417-0.927-0.552
		c-0.36-0.093-0.795-0.173-1.365-0.209c-0.528-0.055-1.174-0.055-1.974-0.055c-0.747,0-1.365,0-1.843,0.055
		c-0.521,0.036-0.947,0.116-1.287,0.209c-0.38,0.135-0.694,0.303-0.898,0.53c-0.203,0.251-0.365,0.528-0.491,0.847l-15.866,43.935
		c-0.22,0.589-0.337,1.076-0.337,1.427c-0.021,0.628,0.204,0.975,0.422,1.151c0.252,0.251,0.646,0.389,1.201,0.455
		c0.457,0.072,1.041,0.104,1.807,0.104c0.683,0,1.251-0.032,1.716-0.077c0.506-0.052,0.871-0.135,1.151-0.278
		c0.283-0.128,0.521-0.303,0.717-0.555c0.147-0.197,0.268-0.448,0.358-0.701l3.768-11.04h18.973l3.958,11.211
		c0.105,0.27,0.223,0.489,0.357,0.662c0.176,0.219,0.416,0.396,0.73,0.503c0.274,0.104,0.626,0.159,1.154,0.243
		c0.458,0.007,1.075,0.032,1.85,0.032c0.751,0,1.37-0.032,1.869-0.077c0.562-0.052,0.982-0.231,1.244-0.451
		c0.196-0.191,0.463-0.551,0.442-1.12c-0.014-0.386-0.134-0.847-0.344-1.465L492.895,346.097z M495.509,374.495h-15.078
		l7.493-21.616L495.509,374.495z"/>
	<path fill="#FFFFFF" d="M580.662,345.454c-0.281-0.301-0.633-0.504-1.035-0.614c-0.379-0.152-0.765-0.21-1.222-0.21h-4.056
		c-0.642,0-1.252,0.081-1.759,0.235c-0.546,0.152-1.04,0.401-1.448,0.728c-0.428,0.35-0.822,0.796-1.188,1.364
		c-0.337,0.542-0.646,1.216-0.907,1.935l-13.707,33.225l-13.174-33.282c-0.237-0.704-0.505-1.315-0.807-1.862
		c-0.345-0.528-0.772-0.945-1.266-1.317c-0.485-0.353-1.073-0.616-1.714-0.789c-0.619-0.154-1.335-0.235-2.2-0.235h-3.866
		c-0.774,0-1.491,0.258-2.128,0.761c-0.669,0.526-1.001,1.41-1.001,2.576v43.507c0,0.305,0.071,0.556,0.205,0.753
		c0.14,0.252,0.393,0.444,0.745,0.566c0.282,0.112,0.632,0.2,1.047,0.228c0.409,0.084,0.922,0.116,1.589,0.116
		c0.683,0,1.217-0.032,1.603-0.104c0.415-0.057,0.781-0.127,1.054-0.224c0.359-0.12,0.634-0.314,0.787-0.54
		c0.162-0.215,0.248-0.49,0.248-0.795v-38.636l15.02,38.969c0.079,0.247,0.197,0.435,0.401,0.594
		c0.161,0.177,0.394,0.315,0.745,0.428c0.261,0.097,0.605,0.18,1.013,0.231c0.823,0.121,1.968,0.121,2.685,0.045
		c0.421-0.084,0.751-0.139,1.033-0.243c0.344-0.107,0.569-0.22,0.751-0.383c0.197-0.173,0.331-0.405,0.422-0.627l15.801-39.205
		v38.827c0,0.305,0.085,0.556,0.247,0.78c0.161,0.24,0.414,0.417,0.73,0.539c0.303,0.112,0.668,0.183,1.092,0.239
		c0.413,0.072,0.92,0.104,1.546,0.104c0.688,0,1.216-0.032,1.609-0.104c0.394-0.057,0.745-0.127,1.025-0.224
		c0.352-0.12,0.626-0.314,0.787-0.54c0.162-0.215,0.248-0.49,0.248-0.795v-43.507c0-0.576-0.086-1.062-0.261-1.479
		C581.175,346.082,580.936,345.738,580.662,345.454z"/>
	<path fill="#FFFFFF" d="M629.551,370.345c-1.005-1.024-2.221-1.943-3.551-2.714c-1.32-0.755-2.65-1.442-3.985-2.077
		c-1.292-0.556-2.566-1.188-3.824-1.755l-0.12-0.061c-1.307-0.625-2.432-1.29-3.394-1.974c-0.957-0.688-1.717-1.499-2.299-2.39
		c-0.535-0.875-0.832-1.923-0.832-3.139c0-0.828,0.128-1.604,0.444-2.393c0.295-0.722,0.717-1.322,1.286-1.877
		c0.597-0.538,1.364-0.982,2.265-1.308c0.891-0.351,2.017-0.527,3.253-0.527c1.392,0,2.624,0.177,3.683,0.527
		c1.146,0.354,2.097,0.704,2.869,1.161c0.823,0.406,1.525,0.774,2.06,1.127c1.201,0.702,1.821,0.702,2.286,0.282
		c0.216-0.156,0.365-0.415,0.477-0.731c0.085-0.254,0.135-0.58,0.19-0.959c0.035-0.347,0.042-0.771,0.042-1.23
		c0-0.468-0.007-0.874-0.016-1.142c-0.034-0.333-0.082-0.611-0.132-0.837c-0.042-0.256-0.128-0.481-0.219-0.658
		c-0.091-0.153-0.259-0.352-0.549-0.639c-0.267-0.281-0.765-0.59-1.561-1.007c-0.73-0.353-1.573-0.725-2.592-1.076
		c-0.92-0.291-1.968-0.526-3.065-0.72c-1.055-0.195-2.158-0.278-3.233-0.278c-2.101,0-4.099,0.278-5.87,0.823
		c-1.842,0.575-3.421,1.425-4.744,2.48c-1.323,1.119-2.375,2.462-3.143,4.087c-0.723,1.604-1.11,3.466-1.11,5.467
		c0,2.041,0.316,3.751,0.976,5.198c0.64,1.408,1.497,2.667,2.523,3.715c1.033,1.073,2.23,1.98,3.495,2.744
		c1.308,0.778,2.621,1.469,3.95,2.082l3.943,1.825c1.224,0.59,2.348,1.231,3.339,1.934c0.949,0.7,1.708,1.483,2.286,2.358
		c0.542,0.878,0.835,1.936,0.835,3.188c0,1.189-0.21,2.197-0.611,3.141c-0.402,0.874-0.991,1.646-1.743,2.281
		c-0.767,0.625-1.716,1.122-2.777,1.454c-1.067,0.344-2.292,0.535-3.598,0.535c-1.715,0-3.269-0.23-4.611-0.631
		c-1.323-0.383-2.489-0.848-3.474-1.347c-0.941-0.464-1.729-0.892-2.319-1.318c-1.193-0.799-1.875-0.858-2.502-0.499
		c-0.216,0.144-0.402,0.363-0.555,0.676c-0.112,0.25-0.19,0.604-0.26,0.995c-0.043,0.375-0.071,0.835-0.071,1.391
		c0,0.83,0.071,1.478,0.226,1.965c0.153,0.523,0.394,0.967,0.724,1.298c0.309,0.323,0.816,0.7,1.603,1.151
		c0.716,0.399,1.622,0.832,2.769,1.259c1.069,0.379,2.306,0.72,3.689,0.976c1.364,0.288,2.897,0.451,4.499,0.451
		c2.292,0,4.479-0.354,6.497-0.979c2.024-0.6,3.787-1.551,5.279-2.81c1.498-1.231,2.692-2.77,3.521-4.567
		c0.865-1.782,1.281-3.864,1.281-6.12c0-1.964-0.316-3.658-0.978-5.079C631.456,372.625,630.604,371.399,629.551,370.345z"/>
	<path fill="#FFFFFF" d="M684.851,345.51c-0.155-0.292-0.354-0.52-0.599-0.645c-0.232-0.178-0.499-0.235-0.788-0.235h-32.897
		c-0.302,0-0.57,0.058-0.788,0.235c-0.232,0.125-0.42,0.353-0.583,0.7c-0.105,0.247-0.19,0.552-0.265,0.986
		c-0.079,0.354-0.086,0.769-0.086,1.291c0,0.503,0.008,0.911,0.086,1.279c0.074,0.412,0.16,0.689,0.265,0.956
		c0.169,0.303,0.351,0.512,0.562,0.661c0.227,0.142,0.501,0.218,0.809,0.218h12.808v40.517c0,0.305,0.063,0.58,0.231,0.768
		c0.162,0.253,0.429,0.43,0.761,0.552c0.294,0.112,0.646,0.183,1.082,0.239c0.422,0.072,0.936,0.104,1.581,0.104
		c0.648,0,1.153-0.032,1.582-0.104c0.416-0.057,0.774-0.127,1.054-0.224c0.351-0.138,0.604-0.314,0.766-0.555
		c0.141-0.2,0.211-0.476,0.211-0.78v-40.517h12.821c0.302,0,0.584-0.076,0.788-0.218c0.245-0.149,0.443-0.344,0.599-0.646
		c0.105-0.252,0.201-0.559,0.282-1.012c0.049-0.354,0.082-0.769,0.082-1.238c0-0.522-0.033-0.938-0.082-1.291
		C685.052,346.117,684.956,345.785,684.851,345.51z"/>
	<path fill="#FFFFFF" d="M731.458,387.558c-0.177-0.292-0.353-0.511-0.605-0.622c-0.217-0.156-0.477-0.232-0.78-0.232h-18.258
		v-15.907h15.379c0.312,0,0.552-0.099,0.756-0.208c0.26-0.149,0.456-0.344,0.612-0.615c0.141-0.235,0.247-0.583,0.287-0.939
		c0.062-0.348,0.072-0.735,0.072-1.214c0-0.472-0.009-0.893-0.072-1.243c-0.041-0.42-0.146-0.739-0.287-0.991
		c-0.142-0.24-0.318-0.452-0.554-0.635c-0.24-0.157-0.502-0.233-0.814-0.233h-15.379v-13.881h18.011
		c0.295,0,0.557-0.067,0.781-0.191c0.241-0.159,0.43-0.393,0.592-0.688c0.11-0.243,0.194-0.567,0.26-0.915
		c0.091-0.351,0.091-0.735,0.091-1.259c0-0.511,0-0.958-0.091-1.295c-0.066-0.354-0.149-0.659-0.26-0.935
		c-0.155-0.336-0.351-0.563-0.592-0.688c-0.224-0.178-0.485-0.235-0.781-0.235h-22.461c-0.676,0-1.3,0.235-1.871,0.672
		c-0.638,0.464-0.95,1.271-0.95,2.37v42.195c0,1.128,0.312,1.911,0.95,2.387c0.571,0.435,1.219,0.671,1.871,0.671h22.708
		c0.303,0,0.563-0.097,0.78-0.22c0.253-0.128,0.428-0.356,0.605-0.651c0.175-0.275,0.266-0.628,0.323-1
		c0.042-0.344,0.069-0.759,0.069-1.21c0-0.522-0.026-0.955-0.069-1.308C731.724,388.165,731.633,387.834,731.458,387.558z"/>
	<path fill="#FFFFFF" d="M786.294,388.612l-4.238-10.405c-0.5-1.189-0.995-2.286-1.472-3.265c-0.528-0.986-1.053-1.857-1.613-2.568
		c-0.565-0.771-1.198-1.405-1.852-2.002c-0.399-0.283-0.785-0.59-1.208-0.812c0.99-0.448,1.947-0.918,2.812-1.475
		c1.161-0.738,2.142-1.613,2.999-2.564c0.824-1.047,1.498-2.216,1.934-3.514c0.444-1.31,0.652-2.793,0.652-4.392
		c0-1.685-0.229-3.267-0.734-4.669c-0.492-1.408-1.232-2.662-2.229-3.761c-1.005-1.082-2.251-2.018-3.671-2.713
		c-1.468-0.708-3.141-1.225-5.011-1.531c-0.654-0.077-1.38-0.167-2.181-0.216c-0.793-0.052-1.805-0.097-2.99-0.097h-10.067
		c-0.661,0-1.317,0.235-1.891,0.672c-0.612,0.464-0.966,1.271-0.966,2.37v43.802c0,0.305,0.084,0.58,0.262,0.768
		c0.135,0.253,0.401,0.43,0.737,0.552c0.31,0.112,0.667,0.183,1.047,0.228c0.424,0.084,0.95,0.116,1.616,0.116
		c0.646,0,1.178-0.032,1.591-0.104c0.415-0.057,0.764-0.127,1.026-0.224c0.322-0.138,0.58-0.301,0.76-0.503
		c0.175-0.252,0.258-0.527,0.258-0.832V371.85h3.699c1.367,0,2.544,0.173,3.506,0.59c0.973,0.379,1.814,0.962,2.524,1.693
		c0.715,0.702,1.343,1.578,1.87,2.613c0.533,1.073,1.061,2.205,1.581,3.436l4.309,11.14c0.141,0.357,0.26,0.628,0.437,0.829
		c0.176,0.25,0.441,0.503,0.752,0.606c0.303,0.168,0.654,0.251,1.119,0.303c0.437,0.045,0.983,0.077,1.62,0.077
		c0.717,0,1.323-0.032,1.786-0.077c0.494-0.052,0.874-0.135,1.148-0.231c0.395-0.175,0.624-0.368,0.762-0.602
		c0.108-0.245,0.151-0.485,0.151-0.753c0-0.225-0.043-0.575-0.151-0.942C786.847,390.118,786.637,389.492,786.294,388.612z
		 M776.684,358.24c0,1.071-0.189,2.082-0.533,3.01c-0.354,0.906-0.921,1.705-1.631,2.35c-0.789,0.694-1.752,1.222-2.878,1.573
		c-1.152,0.381-2.534,0.596-4.139,0.596h-5.638v-14.961h4.814c1.224,0,2.216,0.028,2.967,0.136c0.724,0.056,1.371,0.177,1.977,0.354
		c1.836,0.507,3.127,1.362,3.877,2.527C776.276,355.023,776.684,356.515,776.684,358.24z"/>
	<path fill="#FFFFFF" d="M840.139,350.943c-1.989-2.041-4.446-3.623-7.299-4.683c-2.881-1.078-6.431-1.631-10.572-1.631h-10.704
		c-0.67,0-1.314,0.235-1.895,0.672c-0.616,0.464-0.947,1.271-0.947,2.37v42.195c0,1.128,0.331,1.911,0.947,2.387
		c0.608,0.435,1.225,0.671,1.895,0.671h10.014c4.086,0,7.672-0.524,10.614-1.541c2.984-1.014,5.548-2.578,7.607-4.604
		c2.047-2.062,3.625-4.663,4.695-7.828c1.068-3.063,1.604-6.736,1.604-10.878c0-3.599-0.498-6.872-1.51-9.729
		C843.589,355.475,842.09,352.974,840.139,350.943z M821.972,386.684h-5.976v-35.848h5.9c3.191,0,5.82,0.461,7.813,1.336
		c2.007,0.878,3.678,2.085,4.979,3.611c1.278,1.555,2.249,3.413,2.871,5.538c0.609,2.165,0.933,4.527,0.933,7.009
		c0,3.164-0.354,5.914-1.029,8.231c-0.652,2.246-1.691,4.146-3.015,5.666c-1.328,1.499-3.017,2.618-5.002,3.328
		C827.447,386.295,824.946,386.684,821.972,386.684z"/>
	<path fill="#FFFFFF" d="M888.803,346.097c-0.127-0.351-0.295-0.618-0.502-0.857c-0.237-0.232-0.541-0.417-0.954-0.552
		c-0.354-0.093-0.783-0.173-1.339-0.209c-0.518-0.055-1.203-0.055-1.986-0.055c-0.741,0-1.353,0-1.847,0.055
		c-0.522,0.036-0.937,0.116-1.276,0.209c-0.393,0.135-0.681,0.303-0.92,0.53c-0.191,0.251-0.365,0.528-0.462,0.847l-15.889,43.935
		c-0.206,0.589-0.331,1.076-0.344,1.427c-0.012,0.628,0.235,0.975,0.429,1.151c0.262,0.251,0.653,0.389,1.219,0.455
		c0.448,0.072,1.045,0.104,1.8,0.104c0.673,0,1.247-0.032,1.717-0.077c0.508-0.052,0.873-0.135,1.151-0.278
		c0.271-0.128,0.516-0.303,0.706-0.555c0.161-0.197,0.268-0.448,0.358-0.701l3.775-11.04h18.971l3.951,11.211
		c0.104,0.27,0.24,0.489,0.367,0.662c0.161,0.219,0.414,0.396,0.723,0.503c0.273,0.104,0.656,0.159,1.161,0.243
		c0.464,0.007,1.076,0.032,1.861,0.032c0.733,0,1.35-0.032,1.862-0.077c0.547-0.052,0.979-0.231,1.232-0.451
		c0.211-0.191,0.455-0.551,0.449-1.12c-0.015-0.386-0.127-0.847-0.353-1.465L888.803,346.097z M891.402,374.495h-15.051
		l7.478-21.616L891.402,374.495z"/>
	<path fill="#FFFFFF" d="M977.257,346.488c-0.178-0.406-0.407-0.75-0.688-1.034c-0.29-0.301-0.64-0.504-1.026-0.614
		c-0.381-0.152-0.774-0.21-1.216-0.21h-4.059c-0.667,0-1.258,0.081-1.777,0.235c-0.539,0.152-1.019,0.401-1.441,0.728
		c-0.435,0.35-0.807,0.796-1.164,1.364c-0.347,0.542-0.677,1.216-0.94,1.935l-13.696,33.225l-13.18-33.282
		c-0.219-0.704-0.498-1.315-0.813-1.862c-0.347-0.528-0.769-0.945-1.245-1.317c-0.514-0.353-1.097-0.616-1.729-0.789
		c-0.619-0.154-1.345-0.235-2.202-0.235h-3.864c-0.781,0-1.487,0.258-2.129,0.761c-0.669,0.526-0.994,1.41-0.994,2.576v43.507
		c0,0.305,0.057,0.556,0.199,0.753c0.141,0.252,0.392,0.444,0.738,0.566c0.288,0.112,0.654,0.2,1.046,0.228
		c0.415,0.084,0.936,0.116,1.59,0.116c0.68,0,1.208-0.032,1.63-0.104c0.394-0.057,0.761-0.127,1.041-0.224
		c0.363-0.12,0.633-0.314,0.785-0.54c0.149-0.215,0.233-0.49,0.233-0.795v-38.636l15.037,38.969c0.069,0.247,0.218,0.435,0.4,0.594
		c0.174,0.177,0.393,0.315,0.735,0.428c0.276,0.097,0.604,0.18,1.021,0.231c0.813,0.121,1.963,0.121,2.687,0.045
		c0.407-0.084,0.745-0.139,1.026-0.243c0.344-0.107,0.59-0.22,0.765-0.383c0.183-0.173,0.316-0.405,0.426-0.627l15.793-39.205
		v38.827c0,0.305,0.083,0.556,0.239,0.78c0.166,0.24,0.421,0.417,0.751,0.539c0.296,0.112,0.653,0.183,1.068,0.239
		c0.432,0.072,0.928,0.104,1.573,0.104c0.67,0,1.193-0.032,1.588-0.104c0.404-0.057,0.755-0.127,1.019-0.224
		c0.376-0.12,0.647-0.314,0.798-0.54c0.159-0.215,0.229-0.49,0.229-0.795v-43.507C977.508,347.391,977.432,346.905,977.257,346.488z
		"/>
</g>
<g>
	<path fill="#FFFFFF" d="M197.138,52.916c-0.542-1.35-1.21-2.318-2.018-2.9c-0.802-0.591-1.695-0.887-2.665-0.887H45.214
		c-1.075,0-1.996,0.296-2.741,0.887c-0.753,0.582-1.407,1.551-1.941,2.9c-0.54,1.351-0.942,3.155-1.207,5.405
		c-0.274,2.277-0.409,5.011-0.409,8.236c0,3.119,0.135,5.792,0.409,7.989c0.265,2.202,0.667,3.985,1.207,5.334
		c0.534,1.351,1.188,2.333,1.941,2.972c0.745,0.648,1.666,0.983,2.741,0.983h52.312v168.352c0,1.084,0.344,2.054,1.04,2.904
		c0.703,0.856,1.861,1.558,3.479,2.087c1.61,0.55,3.796,0.99,6.53,1.299c2.756,0.338,6.165,0.491,10.255,0.491
		c4.091,0,7.507-0.153,10.256-0.491c2.742-0.309,4.922-0.749,6.538-1.299c1.616-0.529,2.776-1.23,3.472-2.087
		c0.704-0.851,1.047-1.82,1.047-2.904V83.836h52.311c0.97,0,1.863-0.335,2.665-0.983c0.808-0.639,1.476-1.622,2.018-2.972
		c0.541-1.349,0.941-3.133,1.209-5.334c0.274-2.198,0.402-4.87,0.402-7.989c0-3.225-0.128-5.958-0.402-8.236
		C198.079,56.071,197.679,54.267,197.138,52.916z"/>
	<path fill="#FFFFFF" d="M452.415,49.931c-1.612-0.535-3.742-0.957-6.377-1.293c-2.637-0.31-6.002-0.478-10.094-0.478
		c-4.092,0-7.508,0.168-10.251,0.478c-2.747,0.336-4.924,0.758-6.542,1.293c-1.609,0.547-2.742,1.25-3.382,2.101
		c-0.653,0.857-0.969,1.827-0.969,2.908V83.91c-19.746,24.281-39.048,36.761-57.452,36.83c-0.042,0-0.083,0-0.133,0
		c-13.208,0-23.126-6.596-28.638-11.418V54.939c0-1.081-0.351-2.051-1.04-2.908c-0.71-0.85-1.863-1.554-3.479-2.101
		c-1.611-0.535-3.769-0.957-6.46-1.293c-2.686-0.31-6.075-0.478-10.166-0.478c-4.204,0-7.647,0.168-10.333,0.478
		c-2.69,0.336-4.877,0.758-6.544,1.293c-1.665,0.547-2.825,1.25-3.473,2.101c-0.639,0.857-0.969,1.827-0.969,2.908v127.034
		c0,13.336,1.912,24.987,5.729,34.938c3.832,9.949,9.349,18.278,16.561,24.943c7.204,6.668,16.034,11.655,26.472,14.935
		c10.438,3.281,22.227,4.912,35.358,4.912c13.988,0,26.375-1.818,37.134-5.466c10.763-3.667,19.802-8.999,27.121-15.987
		c7.324-6.992,12.863-15.558,16.63-25.68c3.769-10.105,5.652-21.572,5.652-34.372V54.939c0-1.081-0.322-2.051-0.97-2.908
		C455.154,51.181,454.03,50.478,452.415,49.931z M411.811,200.29c-1.986,5.759-4.822,10.598-8.477,14.524
		c-3.664,3.938-8.133,6.909-13.406,8.952c-5.27,2.052-11.246,3.066-17.922,3.066c-6.56,0-12.506-0.984-17.84-2.974
		c-5.322-1.996-9.898-4.989-13.715-8.958c-3.823-3.987-6.762-9.025-8.8-15.104c-2.046-6.08-3.072-13.259-3.072-21.543v-57.918
		c7.072,4.597,16.646,8.776,28.63,8.776c19.064,0,38.373-10.612,57.592-31.213v82.789C414.8,187.993,413.8,194.542,411.811,200.29z"
		/>
	<path fill="#FFFFFF" d="M705.86,161.229c-3.703-4.253-8.069-7.716-13.066-10.414c-5.011-2.699-10.476-4.577-16.394-5.643
		c4.625-1.722,8.746-3.987,12.345-6.797c3.613-2.791,6.648-6.023,9.13-9.685c2.481-3.646,4.356-7.714,5.644-12.177
		c1.301-4.469,1.939-9.225,1.939-14.286c0-9.045-1.61-16.886-4.841-23.556c-3.229-6.682-7.888-12.192-13.961-16.549
		c-6.088-4.363-13.558-7.617-22.451-9.761c-8.871-2.149-19.718-3.233-32.533-3.233h-52.466c-3.557,0-6.536,1.053-8.961,3.142
		c-2.418,2.109-3.627,5.518-3.627,10.259v182.084c0,4.728,1.209,8.136,3.627,10.237c2.425,2.093,5.405,3.146,8.961,3.146h55.538
		c8.394,0,16.014-0.505,22.854-1.523c6.826-1.031,13.257-2.613,19.289-4.767c6.03-2.158,11.541-4.897,16.553-8.234
		c4.997-3.346,9.307-7.315,12.912-11.946c3.6-4.639,6.433-9.957,8.469-15.98c2.049-6.031,3.077-12.754,3.077-20.186
		c0-7.101-1.076-13.5-3.229-19.2C712.51,170.449,709.585,165.48,705.86,161.229z M608.272,80.914h21.474
		c6.558,0,11.81,0.605,15.733,1.785c3.929,1.18,7.182,2.881,9.77,5.082c2.587,2.206,4.518,4.981,5.813,8.326
		c1.292,3.326,1.935,7.099,1.935,11.287c0,3.772-0.587,7.35-1.773,10.729c-1.188,3.402-2.98,6.36-5.412,8.891
		c-2.419,2.522-5.462,4.52-9.118,5.965c-3.656,1.455-8.562,2.173-14.69,2.173h-23.731V80.914z M671.312,209.169
		c-1.667,3.6-3.978,6.616-6.938,9.032c-2.959,2.424-6.461,4.253-10.502,5.487c-4.026,1.237-9.012,1.852-14.922,1.852h-30.677
		v-59.401h25.179c7.754,0,14.045,0.704,18.896,2.102c4.84,1.404,8.82,3.402,11.947,5.985c3.122,2.583,5.49,5.778,7.101,9.595
		c1.617,3.826,2.416,8.148,2.416,13.005C673.812,201.444,672.986,205.553,671.312,209.169z"/>
	<path fill="#FFFFFF" d="M962.317,161.229c-3.7-4.253-8.067-7.716-13.065-10.414c-5.02-2.699-10.489-4.577-16.398-5.643
		c4.624-1.722,8.75-3.987,12.349-6.797c3.614-2.791,6.651-6.023,9.127-9.685c2.479-3.646,4.363-7.714,5.65-12.177
		c1.293-4.469,1.939-9.225,1.939-14.286c0-9.045-1.615-16.886-4.843-23.556c-3.227-6.682-7.882-12.192-13.961-16.549
		c-6.092-4.363-13.574-7.617-22.46-9.761c-8.869-2.149-19.715-3.233-32.528-3.233h-52.483c-3.549,0-6.528,1.053-8.962,3.142
		c-2.409,2.109-3.626,5.518-3.626,10.259v182.084c0,4.728,1.217,8.136,3.626,10.237c2.434,2.093,5.413,3.146,8.962,3.146h55.554
		c8.392,0,16.008-0.505,22.847-1.523c6.83-1.031,13.262-2.613,19.295-4.767c6.029-2.158,11.541-4.897,16.559-8.234
		c5.002-3.346,9.31-7.315,12.915-11.946c3.598-4.639,6.426-9.957,8.468-15.98c2.05-6.031,3.071-12.754,3.071-20.186
		c0-7.101-1.07-13.5-3.225-19.2C968.967,170.449,966.038,165.48,962.317,161.229z M864.718,80.914h21.475
		c6.564,0,11.809,0.605,15.739,1.785c3.93,1.18,7.186,2.881,9.771,5.082c2.575,2.206,4.516,4.981,5.808,8.326
		c1.3,3.326,1.939,7.099,1.939,11.287c0,3.772-0.586,7.35-1.775,10.729c-1.19,3.402-2.989,6.36-5.408,8.891
		c-2.42,2.522-5.461,4.52-9.122,5.965c-3.659,1.455-8.559,2.173-14.696,2.173h-23.73V80.914z M927.765,209.169
		c-1.669,3.6-3.979,6.616-6.938,9.032c-2.959,2.424-6.464,4.253-10.502,5.487c-4.025,1.237-9.011,1.852-14.93,1.852h-30.677v-59.401
		h25.186c7.753,0,14.044,0.704,18.895,2.102c4.838,1.404,8.823,3.402,11.942,5.985c3.128,2.583,5.49,5.778,7.107,9.595
		c1.611,3.826,2.416,8.148,2.416,13.005C930.264,201.444,929.43,205.553,927.765,209.169z"/>
	<path fill="#FFFFFF" d="M1194.383,226.762c-0.547-1.342-1.209-2.313-2.025-2.902c-0.799-0.592-1.748-0.898-2.825-0.898h-65.723
		V54.939c0-1.081-0.351-2.051-1.04-2.908c-0.701-0.85-1.861-1.554-3.475-2.101c-1.616-0.535-3.771-0.957-6.457-1.293
		c-2.693-0.31-6.146-0.478-10.342-0.478c-4.097,0-7.506,0.168-10.256,0.478c-2.743,0.336-4.928,0.758-6.544,1.293
		c-1.608,0.547-2.767,1.25-3.471,2.101c-0.691,0.857-1.048,1.827-1.048,2.908v189.675c0,4.728,1.217,8.136,3.631,10.237
		c2.432,2.093,5.416,3.146,8.965,3.146h95.759c1.077,0,2.026-0.323,2.825-0.97c0.816-0.646,1.479-1.701,2.025-3.14
		c0.538-1.46,0.937-3.291,1.208-5.49c0.269-2.204,0.404-4.925,0.404-8.15c0-3.231-0.136-5.954-0.404-8.159
		C1195.319,229.888,1194.921,228.118,1194.383,226.762z"/>
	<path fill="#FFFFFF" d="M1405.635,233.551c-0.267-2.106-0.675-3.795-1.209-5.078c-0.537-1.295-1.21-2.258-2.025-2.847
		c-0.802-0.594-1.687-0.888-2.657-0.888h-75.24v-58.907h63.137c0.969,0,1.848-0.281,2.663-0.815c0.795-0.534,1.469-1.435,2.02-2.671
		c0.531-1.228,0.932-2.868,1.208-4.91c0.265-2.046,0.399-4.626,0.399-7.745c0-3.017-0.135-5.571-0.399-7.673
		c-0.276-2.094-0.677-3.76-1.208-5c-0.551-1.235-1.225-2.163-2.02-2.752c-0.815-0.591-1.694-0.885-2.663-0.885h-63.137V82.375
		h74.595c0.968,0,1.833-0.295,2.585-0.877c0.747-0.598,1.395-1.534,1.942-2.826c0.534-1.293,0.936-2.986,1.208-5.094
		c0.266-2.093,0.401-4.645,0.401-7.661c0-3.232-0.136-5.897-0.401-7.989c-0.272-2.11-0.674-3.817-1.208-5.166
		c-0.548-1.342-1.195-2.284-1.942-2.831c-0.752-0.535-1.617-0.802-2.585-0.802h-104.299c-3.561,0-6.54,1.053-8.971,3.142
		c-2.409,2.109-3.626,5.518-3.626,10.259v182.084c0,4.728,1.217,8.136,3.626,10.237c2.431,2.093,5.41,3.146,8.971,3.146h104.944
		c0.971,0,1.855-0.295,2.657-0.887c0.815-0.588,1.488-1.527,2.025-2.812c0.534-1.296,0.942-2.992,1.209-5.099
		c0.268-2.093,0.407-4.708,0.407-7.825C1406.042,238.25,1405.902,235.638,1405.635,233.551z"/>
</g>
</svg>
